<svg id="Layer_1" data-name="Layer 1" xmlns="http://www.w3.org/2000/svg" viewBox="0 0 166.14 31"><defs><style>.cls-1{fill:#fff;}.cls-2{fill:#f7ab1b;}</style></defs><path id="Path" class="cls-1" d="M49.63,8.27H39.79A.75.75,0,0,0,39,9v.46a.75.75,0,0,0,.75.74H43.2a.44.44,0,0,1,.42.42V21.92a.83.83,0,0,0,.83.81H45a.83.83,0,0,0,.83-.81h0V10.61a.44.44,0,0,1,.43-.42h3.43a.75.75,0,0,0,.75-.74V9A.77.77,0,0,0,49.63,8.27Z"/><path id="Path-2" data-name="Path" class="cls-1" d="M80.32,9.07a.81.81,0,0,0-.82-.8H79a.81.81,0,0,0-.82.8v8a3.49,3.49,0,1,1-7-.05v-8a.81.81,0,0,0-.82-.8h-.52a.81.81,0,0,0-.82.8v8.14a5.68,5.68,0,0,0,11.36,0Z"/><path id="Path-3" data-name="Path" class="cls-1" d="M108.62,20.79h-4.94a.42.42,0,0,1-.43-.42V9.08a.83.83,0,0,0-.83-.81h-.55a.83.83,0,0,0-.83.81V21.94a.8.8,0,0,0,.8.79h6.73a.72.72,0,0,0,.73-.71v-.47A.66.66,0,0,0,108.62,20.79Z"/><path id="Shape" class="cls-1" d="M61.87,16.9h0a4.62,4.62,0,0,0,3-4.22,4.4,4.4,0,0,0-4.44-4.41H55.34a.81.81,0,0,0-.8.81v.39h0V21.9a.81.81,0,0,0,.8.81h.49a.82.82,0,0,0,.8-.81V17.49a.41.41,0,0,1,.41-.42h2.52a.26.26,0,0,1,.22.12l2.62,5.13a.82.82,0,0,0,1.09.32l.44-.25a.82.82,0,0,0,.31-1.11Zm-1.58-1.61h-3.2a.41.41,0,0,1-.41-.39V11h0v-.24a.41.41,0,0,1,.38-.42h3.16a2.5,2.5,0,0,1,.07,5Z"/><path id="Path-4" data-name="Path" class="cls-1" d="M95.11,20.81H89.19a.42.42,0,0,1-.43-.42V16.78a.42.42,0,0,1,.43-.42H94.1a.76.76,0,0,0,.76-.74v-.47a.76.76,0,0,0-.76-.74H89.19a.42.42,0,0,1-.43-.42V10.64a.42.42,0,0,1,.43-.42h5.92a.75.75,0,0,0,.76-.74V9a.75.75,0,0,0-.76-.74H87.39a.79.79,0,0,0-.82.79V21.94a.81.81,0,0,0,.82.79h7.72a.73.73,0,0,0,.74-.71v-.47A.73.73,0,0,0,95.11,20.81Z"/><path id="Path-5" data-name="Path" class="cls-1" d="M149.88,20.81H144a.44.44,0,0,1-.43-.42v-.32h0V16.78a.44.44,0,0,1,.43-.42h4.9a.75.75,0,0,0,.76-.74v-.47a.76.76,0,0,0-.76-.74H144a.42.42,0,0,1-.43-.42V10.88h0v-.24a.41.41,0,0,1,.43-.42h5.92a.76.76,0,0,0,.76-.74V9a.75.75,0,0,0-.76-.74h-7.73a.79.79,0,0,0-.81.79V21.94a.8.8,0,0,0,.81.79h7.73a.73.73,0,0,0,.74-.71v-.47A.74.74,0,0,0,149.88,20.81Z"/><path id="Shape-2" data-name="Shape" class="cls-1" d="M125.77,21.45l-6.17-13a.48.48,0,0,0-.36-.22H119a.45.45,0,0,0-.35.22l-6.2,13a.75.75,0,0,0,.38,1l.46.19a.82.82,0,0,0,1.05-.36l1.22-2.58a.26.26,0,0,1,.15-.07h6.71a.27.27,0,0,1,.21.12l1.22,2.55a.81.81,0,0,0,1.05.37l.46-.2A.78.78,0,0,0,125.77,21.45Zm-4.34-3.59h-4.67a.23.23,0,0,1-.23-.22.07.07,0,0,1,0-.07L119,12.35a.1.1,0,0,1,.08,0h0a.1.1,0,0,1,.07,0h0l2.48,5.22a.19.19,0,0,1-.1.26.2.2,0,0,1-.11,0Z"/><path id="Path-6" data-name="Path" class="cls-1" d="M137,8.8l-.5-.37a.81.81,0,0,0-1.14.17l-3.68,5a.15.15,0,0,1-.2,0s0,0,0,0l-3.71-5a.84.84,0,0,0-1.13-.17l-.51.37a.73.73,0,0,0,0,1l4.39,6v6.14a.83.83,0,0,0,.83.81h.53a.83.83,0,0,0,.83-.81V15.75L137,9.81A.72.72,0,0,0,137,8.8Z"/><path id="Shape-3" data-name="Shape" class="cls-1" d="M163.13,16.91s0,0,0,0h0a4.63,4.63,0,0,0,3-4.22,4.41,4.41,0,0,0-4.41-4.42h-5.12a.81.81,0,0,0-.8.81V21.92a.81.81,0,0,0,.8.81h.48a.81.81,0,0,0,.8-.81V17.47a.41.41,0,0,1,.42-.41h2.52a.24.24,0,0,1,.22.12l2.62,5.13a.8.8,0,0,0,1.09.32l.43-.24a.82.82,0,0,0,.32-1.11Zm-1.6-1.61h-3.2a.41.41,0,0,1-.41-.39v-4.2a.41.41,0,0,1,.41-.42h3.15a2.51,2.51,0,0,1,.05,5Z"/><g id="Logomark"><path id="Shape-4" data-name="Shape" class="cls-2" d="M1.66,23.58l12.71,7.09a1.7,1.7,0,0,0,2,0l13.49-7.58c.47-.3.8-.54.8-1.08a1.11,1.11,0,0,0-.65-.94L26.39,18.7l3.45-1.95A2,2,0,0,0,31,15.1V9.84a1.94,1.94,0,0,0-1.18-2S16.58.39,16.58.39a2.15,2.15,0,0,0-2.47,0L.86,7.94A1.43,1.43,0,0,0,.08,9.2c0,.64.68,1.13.78,1.21l3.45,2L.66,14.58a1.3,1.3,0,0,0-.61,1h0c0,.29,0,5.08,0,5.08A2.74,2.74,0,0,0,1.66,23.58ZM28.28,22.1,15.37,29.19,2.9,22.3l3.9-2.19,8.1,4.54a1,1,0,0,0,.9,0l8.75-5Zm1.08-7.55-3.48-2.09,3.48-2Zm-13-12.21L28.2,9.15l-3.9,2.34-8-4.76Zm-1,5.87,7.21,4.3-7.21,4.07h0L8,12.41l7.39-4.2ZM2.29,9.2,14.42,2.34V6.73L6,11.4Zm3.83,4.27L14.9,18.4a1,1,0,0,0,.93,0l8.42-4.93,3.8,2.27-12.7,7.08L2.44,15.54ZM1.71,17.19l3.41,1.9L1.71,21Z"/></g></svg>